<?xml version="1.0" encoding="UTF-8" standalone="no"?>
<!-- Created with Inkscape (http://www.inkscape.org/) -->

<svg
   width="210mm"
   height="297mm"
   viewBox="0 0 210 297"
   version="1.1"
   id="svg1"
   sodipodi:docname="logo.svg"
   inkscape:version="1.4 (e7c3feb1, 2024-10-09)"
   xmlns:inkscape="http://www.inkscape.org/namespaces/inkscape"
   xmlns:sodipodi="http://sodipodi.sourceforge.net/DTD/sodipodi-0.dtd"
   xmlns="http://www.w3.org/2000/svg"
   xmlns:svg="http://www.w3.org/2000/svg">
  <sodipodi:namedview
     id="namedview1"
     pagecolor="#ffffff"
     bordercolor="#000000"
     borderopacity="0.25"
     inkscape:showpageshadow="2"
     inkscape:pageopacity="0.0"
     inkscape:pagecheckerboard="0"
     inkscape:deskcolor="#d1d1d1"
     inkscape:document-units="mm"
     inkscape:zoom="8.7484425"
     inkscape:cx="207.40835"
     inkscape:cy="142.31105"
     inkscape:window-width="2048"
     inkscape:window-height="1017"
     inkscape:window-x="0"
     inkscape:window-y="25"
     inkscape:window-maximized="1"
     inkscape:current-layer="layer1" />
  <defs
     id="defs1" />
  <g
     inkscape:label="Layer 1"
     inkscape:groupmode="layer"
     id="layer1">
    <path
       id="path147517-3"
       style="color:#000000;font-style:normal;font-variant:normal;font-weight:normal;font-stretch:normal;font-size:medium;line-height:normal;font-family:sans-serif;font-variant-ligatures:normal;font-variant-position:normal;font-variant-caps:normal;font-variant-numeric:normal;font-variant-alternates:normal;font-variant-east-asian:normal;font-feature-settings:normal;font-variation-settings:normal;text-indent:0;text-align:start;text-decoration-line:none;text-decoration-style:solid;text-decoration-color:#000000;letter-spacing:normal;word-spacing:normal;text-transform:none;writing-mode:lr-tb;direction:ltr;text-orientation:mixed;dominant-baseline:auto;baseline-shift:baseline;text-anchor:start;white-space:normal;shape-padding:0;shape-margin:0;inline-size:0;clip-rule:nonzero;display:inline;overflow:visible;visibility:visible;isolation:auto;mix-blend-mode:normal;color-interpolation:sRGB;color-interpolation-filters:linearRGB;solid-color:#000000;solid-opacity:1;vector-effect:none;fill:#020302;fill-opacity:1;fill-rule:nonzero;stroke:none;stroke-width:0.264583;stroke-linecap:butt;stroke-linejoin:miter;stroke-miterlimit:4;stroke-dasharray:none;stroke-dashoffset:0;stroke-opacity:1;-inkscape-stroke:none;color-rendering:auto;image-rendering:auto;shape-rendering:auto;text-rendering:auto;enable-background:accumulate;stop-color:#000000"
       d="M 22.787756 38.221956 C 21.268286 38.221956 21.622841 42.650231 22.775871 42.656311 L 60.168937 42.656311 C 61.321977 42.650231 61.676532 38.221956 60.157052 38.221956 L 22.787756 38.221956 z M 23.241992 39.395011 L 59.702816 39.395011 L 59.705916 41.214022 L 23.238892 41.214022 L 23.241992 39.395011 z " />
    <path
       id="path147534-2"
       style="color:#000000;font-style:normal;font-variant:normal;font-weight:normal;font-stretch:normal;font-size:medium;line-height:normal;font-family:sans-serif;font-variant-ligatures:normal;font-variant-position:normal;font-variant-caps:normal;font-variant-numeric:normal;font-variant-alternates:normal;font-variant-east-asian:normal;font-feature-settings:normal;font-variation-settings:normal;text-indent:0;text-align:start;text-decoration-line:none;text-decoration-style:solid;text-decoration-color:#000000;letter-spacing:normal;word-spacing:normal;text-transform:none;writing-mode:lr-tb;direction:ltr;text-orientation:mixed;dominant-baseline:auto;baseline-shift:baseline;text-anchor:start;white-space:normal;shape-padding:0;shape-margin:0;inline-size:0;clip-rule:nonzero;display:inline;overflow:visible;visibility:visible;isolation:auto;mix-blend-mode:normal;color-interpolation:sRGB;color-interpolation-filters:linearRGB;solid-color:#000000;solid-opacity:1;vector-effect:none;fill:#020302;fill-opacity:1;fill-rule:nonzero;stroke:none;stroke-width:0.264583;stroke-linecap:butt;stroke-linejoin:miter;stroke-miterlimit:4;stroke-dasharray:none;stroke-dashoffset:0;stroke-opacity:1;-inkscape-stroke:none;color-rendering:auto;image-rendering:auto;shape-rendering:auto;text-rendering:auto;enable-background:accumulate;stop-color:#000000"
       d="M 23.186182 21.168217 C 20.904505 21.168217 21.517945 25.505586 23.538615 25.518856 L 59.406193 25.518856 C 61.426863 25.505586 62.040256 21.182917 59.758626 21.168217 L 23.186182 21.168217 z M 23.572205 22.480798 L 59.372603 22.480798 L 59.37467 24.262085 L 23.570138 24.262085 L 23.572205 22.480798 z " />
    <path
       id="path147532-5"
       style="color:#000000;font-style:normal;font-variant:normal;font-weight:normal;font-stretch:normal;font-size:medium;line-height:normal;font-family:sans-serif;font-variant-ligatures:normal;font-variant-position:normal;font-variant-caps:normal;font-variant-numeric:normal;font-variant-alternates:normal;font-variant-east-asian:normal;font-feature-settings:normal;font-variation-settings:normal;text-indent:0;text-align:start;text-decoration-line:none;text-decoration-style:solid;text-decoration-color:#000000;letter-spacing:normal;word-spacing:normal;text-transform:none;writing-mode:lr-tb;direction:ltr;text-orientation:mixed;dominant-baseline:auto;baseline-shift:baseline;text-anchor:start;white-space:normal;shape-padding:0;shape-margin:0;inline-size:0;clip-rule:nonzero;display:inline;overflow:visible;visibility:visible;isolation:auto;mix-blend-mode:normal;color-interpolation:sRGB;color-interpolation-filters:linearRGB;solid-color:#000000;solid-opacity:1;vector-effect:none;fill:#020302;fill-opacity:1;fill-rule:nonzero;stroke:none;stroke-width:0.264583;stroke-linecap:butt;stroke-linejoin:miter;stroke-miterlimit:4;stroke-dasharray:none;stroke-dashoffset:0;stroke-opacity:1;-inkscape-stroke:none;color-rendering:auto;image-rendering:auto;shape-rendering:auto;text-rendering:auto;enable-background:accumulate;stop-color:#000000"
       d="M 21.421948 16.464111 C 15.004788 16.464111 15.136421 29.870011 20.202901 29.870011 L 38.708232 29.870011 L 38.708232 33.397445 L 26.008232 33.397445 C 23.796522 33.397445 21.340192 33.129949 19.305282 34.161739 C 15.552702 36.064469 15.870282 44.222718 19.305282 46.274178 C 20.945132 47.253548 23.470728 46.803345 25.302848 46.803345 L 38.708232 46.803345 L 38.708232 63.030778 C 37.021662 62.986378 35.908223 62.048066 34.868673 60.285726 C 34.311123 59.340516 34.672379 57.42847 33.422249 57.41665 L 30.241565 57.386161 L 23.296252 57.416134 C 23.349952 55.374704 23.289253 55.326742 25.223783 55.273112 C 27.135773 55.220112 32.953853 57.900795 34.004643 54.916545 C 34.231583 54.272045 34.121948 53.470208 34.121948 52.799878 C 34.121948 52.133598 34.236223 51.322341 34.004643 50.683211 C 32.973363 47.836861 28.633565 49.764508 26.713615 49.977828 C 24.690875 50.202578 22.325455 49.495683 20.363615 50.095133 C 16.500525 51.275513 16.176587 56.601321 17.306437 59.855261 C 19.158507 65.189221 24.852298 61.041265 28.477848 62.854045 C 30.605028 63.917635 31.642335 66.729181 33.769515 67.792761 C 34.707845 68.261931 36.271508 67.969495 37.296948 67.969495 L 45.64786 67.969495 C 46.67331 67.969495 48.236953 68.261931 49.175293 67.792761 C 51.302463 66.729181 52.33979 63.917635 54.46696 62.854045 C 58.0925 61.041265 63.786311 65.189221 65.638371 59.855261 C 66.768221 56.601321 66.444283 51.275513 62.581193 50.095133 C 60.619353 49.495683 58.253933 50.202578 56.231193 49.977828 C 54.311243 49.764508 49.971445 47.836861 48.940165 50.683211 C 48.708595 51.322341 48.82286 52.133598 48.82286 52.799878 C 48.82286 53.470208 48.713225 54.272045 48.940165 54.916545 C 49.990955 57.900795 55.809035 55.220112 57.721025 55.273112 C 59.655555 55.326742 59.594856 55.374704 59.648556 57.416134 L 52.703243 57.386161 L 49.522559 57.41665 C 48.272429 57.42847 48.633695 59.340516 48.076135 60.285726 C 47.036585 62.048066 45.923156 62.986378 44.236576 63.030778 L 44.236576 46.803345 L 57.64196 46.803345 C 59.47409 46.803345 61.999676 47.253548 63.639526 46.274178 C 67.074526 44.222718 67.392106 36.064469 63.639526 34.161739 C 61.604616 33.129949 59.148276 33.397445 56.936576 33.397445 L 44.236576 33.397445 L 44.236576 29.870011 L 62.741907 29.870011 C 67.808397 29.870011 67.887657 17.282216 61.52286 16.464111 L 21.421948 16.464111 z M 21.225578 17.874878 L 61.71923 17.874878 C 62.812 17.874878 63.789107 19.726718 64.227087 20.698478 C 65.306137 23.092608 64.319512 28.458211 62.503162 28.458211 L 48.46991 28.458211 C 44.36116 28.458211 42.936934 28.062247 42.952934 30.287557 C 42.956134 30.763337 42.953115 32.444255 42.943115 33.044495 C 42.905185 35.380615 46.44831 34.810211 48.46991 34.808211 L 60.81696 34.799426 C 62.58201 34.798096 64.050477 35.897668 64.580037 37.630778 C 65.290897 39.957238 64.950979 43.757583 62.541919 44.962113 C 61.449859 45.508143 59.54749 45.392061 58.34786 45.392061 L 48.82286 45.392061 C 47.35549 45.392061 44.817097 44.925318 43.589587 45.921228 C 42.521857 46.787508 42.825293 48.774995 42.825293 49.978345 L 42.825293 61.972445 C 42.825293 64.438805 44.070573 64.933001 46.353243 64.089111 C 49.591683 62.891871 49.659232 58.757654 50.314242 58.757654 L 52.399902 58.757654 C 54.163202 58.757654 58.411512 58.782154 60.174622 58.757654 C 61.758602 58.150894 61.875874 55.679545 60.434554 54.459725 C 59.362374 53.456445 58.038536 53.717278 56.583626 53.858728 C 53.823106 54.353628 49.09504 56.218634 50.18195 51.471794 C 50.62731 49.526764 54.960523 51.265055 56.231193 51.388595 C 58.098173 51.570115 60.440733 50.885757 62.228243 51.506417 C 65.076933 52.495547 65.276767 57.173838 64.227087 59.502828 C 62.594507 63.125128 56.722956 60.262195 53.761576 61.619495 C 51.591106 62.614295 50.57568 65.329105 48.46991 66.381995 C 47.53157 66.851165 45.96743 66.558211 44.94196 66.558211 L 38.002848 66.558211 C 36.977368 66.558211 35.413248 66.851165 34.474898 66.381995 C 32.369128 65.329105 31.353702 62.614295 29.183232 61.619495 C 26.221852 60.262195 20.350301 63.125128 18.717721 59.502828 C 17.668041 57.173838 17.867875 52.495547 20.716565 51.506417 C 22.504075 50.885757 24.846635 51.570115 26.713615 51.388595 C 27.984285 51.265055 32.317498 49.526764 32.762858 51.471794 C 33.849768 56.218634 29.121712 54.353628 26.361182 53.858728 C 24.906272 53.717278 23.582434 53.456445 22.510254 54.459725 C 21.068934 55.679545 21.186206 58.150894 22.770186 58.757654 C 24.533296 58.782154 28.781616 58.757654 30.544906 58.757654 L 32.630566 58.757654 C 33.285576 58.757654 33.353125 62.891871 36.591565 64.089111 C 38.874235 64.933001 40.119515 64.438805 40.119515 61.972445 L 40.119515 49.978345 C 40.119515 48.774995 40.422941 46.787508 39.355221 45.921228 C 38.127711 44.925318 35.589308 45.392061 34.121948 45.392061 L 24.596948 45.392061 C 23.397298 45.392061 21.494949 45.508143 20.402889 44.962113 C 17.993839 43.757583 17.653911 39.957238 18.364771 37.630778 C 18.894331 35.897668 20.362798 34.798096 22.127848 34.799426 L 34.474898 34.808211 C 36.496508 34.810211 40.039613 35.380615 40.001693 33.044495 C 39.991693 32.444255 39.988674 30.763337 39.991874 30.287557 C 40.007874 28.062247 38.583638 28.458211 34.474898 28.458211 L 20.441646 28.458211 C 18.625296 28.458211 17.638671 23.092608 18.717721 20.698478 C 19.155701 19.726718 20.132808 17.874878 21.225578 17.874878 z " />
    <path
       id="path147530-6"
       style="color:#000000;font-style:normal;font-variant:normal;font-weight:normal;font-stretch:normal;font-size:medium;line-height:normal;font-family:sans-serif;font-variant-ligatures:normal;font-variant-position:normal;font-variant-caps:normal;font-variant-numeric:normal;font-variant-alternates:normal;font-variant-east-asian:normal;font-feature-settings:normal;font-variation-settings:normal;text-indent:0;text-align:start;text-decoration-line:none;text-decoration-style:solid;text-decoration-color:#000000;letter-spacing:normal;word-spacing:normal;text-transform:none;writing-mode:lr-tb;direction:ltr;text-orientation:mixed;dominant-baseline:auto;baseline-shift:baseline;text-anchor:start;white-space:normal;shape-padding:0;shape-margin:0;inline-size:0;clip-rule:nonzero;display:inline;overflow:visible;visibility:visible;isolation:auto;mix-blend-mode:normal;color-interpolation:sRGB;color-interpolation-filters:linearRGB;solid-color:#000000;solid-opacity:1;vector-effect:none;fill:#020302;fill-opacity:1;fill-rule:nonzero;stroke:none;stroke-width:0.264583;stroke-linecap:butt;stroke-linejoin:miter;stroke-miterlimit:4;stroke-dasharray:none;stroke-dashoffset:0;stroke-opacity:1;-inkscape-stroke:none;color-rendering:auto;image-rendering:auto;shape-rendering:auto;text-rendering:auto;enable-background:accumulate;stop-color:#000000"
       d="M 16.130282 10.231934 C 11.779845 10.231934 9.4278483 14.782168 9.4278483 18.933728 L 9.4278483 55.975395 C 9.4278483 60.803425 8.4241804 67.083251 11.66182 71.145011 C 14.82099 75.108321 20.453798 74.672445 24.949898 74.672445 L 57.99491 74.672445 C 62.49102 74.672445 68.123827 75.108321 71.282987 71.145011 C 74.520627 67.083251 73.51696 60.803425 73.51696 55.975395 L 73.51696 18.933728 C 73.51696 14.782168 71.164916 10.252134 66.814526 10.231934 L 16.130282 10.231934 z M 16.483232 11.584306 L 66.461576 11.584306 C 71.338486 11.595816 72.106193 17.875391 72.106193 23.520011 L 72.106193 55.622445 C 72.106193 59.903305 73.141067 65.688648 70.577087 69.380778 C 67.438507 73.900328 62.101986 73.261678 57.289526 73.261678 L 25.655282 73.261678 C 20.842832 73.261678 15.506291 73.900328 12.367721 69.380778 C 9.8037304 65.688648 10.838615 59.903305 10.838615 55.622445 L 10.838615 23.520011 C 10.838615 17.875391 11.606322 11.595816 16.483232 11.584306 z " />
    <path
       id="path147528-3"
       style="color:#000000;font-style:normal;font-variant:normal;font-weight:normal;font-stretch:normal;font-size:medium;line-height:normal;font-family:sans-serif;font-variant-ligatures:normal;font-variant-position:normal;font-variant-caps:normal;font-variant-numeric:normal;font-variant-alternates:normal;font-variant-east-asian:normal;font-feature-settings:normal;font-variation-settings:normal;text-indent:0;text-align:start;text-decoration-line:none;text-decoration-style:solid;text-decoration-color:#000000;letter-spacing:normal;word-spacing:normal;text-transform:none;writing-mode:lr-tb;direction:ltr;text-orientation:mixed;dominant-baseline:auto;baseline-shift:baseline;text-anchor:start;white-space:normal;shape-padding:0;shape-margin:0;inline-size:0;clip-rule:nonzero;display:inline;overflow:visible;visibility:visible;isolation:auto;mix-blend-mode:normal;color-interpolation:sRGB;color-interpolation-filters:linearRGB;solid-color:#000000;solid-opacity:1;vector-effect:none;fill:#020302;fill-opacity:1;fill-rule:nonzero;stroke:none;stroke-width:0.264583;stroke-linecap:butt;stroke-linejoin:miter;stroke-miterlimit:4;stroke-dasharray:none;stroke-dashoffset:0;stroke-opacity:1;-inkscape-stroke:none;color-rendering:auto;image-rendering:auto;shape-rendering:auto;text-rendering:auto;enable-background:accumulate;stop-color:#000000"
       d="m 41.471713,3.7638249 -27.45827,0.11782 C 9.4864129,3.9010449 3.5479325,8.9871349 3.5479325,14.700105 v 54.00239 c 0,8.5196 4.6058104,11.05097 11.6520005,11.73262 l 0.28064,-1.43925 C 9.6643929,78.408945 4.8548325,76.339905 4.8548325,69.326745 l -0.0134,-53.92126 c -10e-4,-4.9278 5.3617905,-10.1549201 9.5250005,-10.1714701 9.03506,-0.057 18.07016,-0.0589 27.10532,-0.0589 z m 0,0 v 1.41129 c 9.03517,0 18.07127,0.002 27.10633,0.0589 4.16321,0.0165 9.526,5.2436701 9.525,10.1714701 l -0.0134,53.92126 c 0,6.78986 -4.42946,8.95468 -9.97775,9.61569 l 0.24554,1.42653 c 6.69797,-0.7709 11.03911,-3.39695 11.03911,-11.66647 v -54.00239 c 0,-5.7129701 -5.93847,-10.7990601 -10.46551,-10.8184601 z m 25.51359,75.2514401 c -1.58156,0.11543 -3.47697,0.17661 -5.15414,0.18168 l -0.1695,5.1e-4 v 1.47227 h 0.21343 c 1.71729,0 3.34121,-0.0414 4.8705,-0.15038 z m -50.17257,1.54336 c 1.35015,0.0781 2.76696,0.11111 4.25658,0.11111 h 1.00666 l -0.54373,-1.49307 -0.419,0.0204 c -1.46117,-0.004 -3.14568,-0.0464 -4.54022,-0.12813 z m 43.03564,-1.37989 -3.81498,-0.004 -0.60804,1.49459 h 4.73873 z m -36.47528,-0.0496 0.22217,1.54103 h 4.48448 l -0.61389,-1.51006 z m 30.23052,0.0399 -3.99437,0.009 -0.65481,1.49249 h 4.85965 z m -23.44375,-0.004 -0.50865,1.50541 h 4.75889 l -0.57296,-1.50844 z m 16.67209,7e-5 -3.94024,-0.002 -0.61388,1.50741 h 5.08031 z m -10.94222,0.007 -0.0234,1.4985 h 4.82451 l -0.49111,-1.49572 z" />
    <path
       id="path1"
       style="fill:#000000;stroke:#000000;stroke-width:0.465;stroke-dasharray:none;stroke-opacity:1"
       d="m 17.224303,79.398195 h -0.40614 l -0.0162,5.20302 c -0.002,0.57536 -0.004,1.12414 -0.005,1.64733 -0.0207,8.03672 0.0127,10.04966 0.15032,10.04966 0.34885,0 1.22519,0.94655 1.39294,1.50461 0.35407,1.1779 -0.12708,2.529905 -1.08062,3.036715 -1.53865,0.81779 -3.35259,-0.16354 -3.69809,-2.000635 -0.1779,-0.94597 0.80993,-2.54069 1.57388,-2.54069 0.22368,0 0.23938,-0.12909 0.157,-1.29097 -0.0503,-0.71003 -0.092,-5.98542 -0.0924,-11.72329 l -2.7e-4,-3.88575 h -0.30292 l -5.3e-4,4.90381 c -5.4e-4,6.12461 0.0421,11.25878 0.0949,11.40939 0.0675,0.19245 0.0264,0.27385 -0.13808,0.27385 -0.4017,0 -0.9333,0.48597 -1.31583,1.20265 -0.30598,0.57354 -0.35709,0.83004 -0.30398,1.53333 0.12971,1.717365 1.24081,2.779995 2.90615,2.779995 1.69351,0 2.62277,-1.03298 2.62277,-2.915385 0,-1.066 -0.139,-1.4196 -0.81451,-2.07002 -0.25313,-0.31858 -0.4717,-0.36788 -0.69675,-0.85362 -0.0444,-0.71619 -0.0477,-9.87533 -0.0267,-16.264 z" />
    <path
       id="path54"
       style="fill:#000000;stroke:#000000;stroke-width:0.465;stroke-dasharray:none;stroke-opacity:1"
       d="m 23.995843,79.398195 h -0.3925 c -1.7e-4,0.0549 -10e-4,0.0878 -0.002,0.14304 l -0.0178,6.47778 0.41114,0.1898 c 0.49149,0.2269 1.14612,1.04287 1.26935,1.58193 0.35025,1.53216 -1.22295,3.53789 -2.58463,3.29528 -1.31147,-0.23366 -2.22244,-1.22497 -2.31712,-2.52174 -0.047,-0.6439 0.006,-0.89728 0.27865,-1.33834 0.27972,-0.45181 0.94004,-1.0705 1.37012,-1.28395 0.055,-0.0272 0.0808,-2.97097 0.0585,-6.5438 h -0.31483 v 6.207 l -0.52974,0.37837 c -1.03223,0.73695 -1.5058,1.98637 -1.19057,3.14155 0.20421,0.74836 0.97918,1.72805 1.63847,2.07155 0.58993,0.30733 1.64132,0.32417 2.26868,0.0364 1.10536,-0.50708 2.02792,-2.45411 1.68078,-3.54743 -0.21686,-0.683 -0.70629,-1.38961 -1.18334,-1.70815 l -0.41198,-0.27507 -0.0315,-6.21005 c -2.1e-4,-0.0405 -8e-5,-0.0542 -2.8e-4,-0.0941 z" />
    <path
       id="path52"
       style="fill:#000000;stroke:#000000;stroke-width:0.465;stroke-dasharray:none;stroke-opacity:1"
       d="m 29.619723,94.362425 h 0.31316 l 0.0155,-3.93413 c 0.017,-4.25243 0.0424,-8.03299 0.0687,-11.03033 h -0.36535 l -0.0227,10.70891 z" />
    <path
       id="path60"
       style="fill:#000000;stroke:#000000;stroke-width:0.465;stroke-dasharray:none;stroke-opacity:1"
       d="m 28.024223,88.080895 h -0.32866 V 100.7349 l -0.51005,0.27698 c -1.44681,0.78725 -1.48962,3.25437 -0.0801,4.61316 0.63681,0.61392 1.03215,0.73525 1.98903,0.61081 1.17145,-0.15231 1.93709,-0.99139 2.21848,-2.43189 0.20605,-1.05494 0.006,-1.70742 -0.76585,-2.50217 l -0.63925,-0.65784 0.0501,-12.563055 h -0.31316 l -0.0274,12.947005 0.50281,0.45527 c 0.70534,0.63833 0.97427,1.27098 0.86352,2.0314 -0.11241,0.77186 -0.37596,1.33688 -0.84956,1.82263 -0.37866,0.38818 -1.35764,0.64608 -1.86862,0.49196 -0.6606,-0.19923 -1.23474,-0.74066 -1.57149,-1.4826 -0.4062,-0.89498 -0.42808,-1.15473 -0.15502,-1.87223 0.2617,-0.68767 0.77026,-1.19114 1.20354,-1.19114 0.34493,0 0.34887,-0.0149 0.26303,-1.02423 -0.0395,-0.464365 -0.0243,-5.831005 0.0186,-12.178065 z" />
    <path
       id="path59"
       style="fill:#000000;stroke:#000000;stroke-width:0.465;stroke-dasharray:none;stroke-opacity:1"
       d="m 27.670493,79.397965 v 10.71872 4.24574 h 0.32866 c 0.009,-1.35266 0.0103,-2.37497 0.0227,-3.82199 0.0365,-4.25326 0.0563,-8.15445 0.061,-11.14247 z" />
    <path
       id="path50"
       style="fill:#000000;stroke:#000000;stroke-width:0.465;stroke-dasharray:none;stroke-opacity:1"
       d="m 36.263443,79.398195 h -0.39807 c 0,0.06 -2.7e-4,0.0819 -2.7e-4,0.14304 v 6.3916 l 0.4259,0.19346 c 0.5495,0.2499 1.42036,1.30828 1.44945,1.76164 0.0651,1.01429 -0.0898,1.57685 -0.61547,2.23414 -1.1748,1.46905 -3.15871,1.30481 -4.10869,-0.33986 -0.47351,-0.81977 -0.54232,-1.49723 -0.23299,-2.29099 0.22825,-0.58569 0.8763,-1.28275 1.33338,-1.43431 l 0.31845,-0.10574 -0.0334,-6.47657 c -1.7e-4,-0.0324 -10e-4,-0.0442 -10e-4,-0.0764 h -0.38804 v 6.207 l -0.53001,0.37837 c -0.85264,0.60873 -1.18027,1.27895 -1.18027,2.41385 0,1.02855 0.18789,1.63391 1.02327,2.42638 0.55089,0.52259 0.74533,0.57948 1.73939,0.63857 0.77125,-0.01 1.11916,-0.0599 1.51304,-0.29565 1.0818,-0.64818 1.75059,-2.20371 1.49566,-3.47805 -0.11969,-0.59831 -0.91581,-1.61066 -1.4617,-1.85883 l -0.39027,-0.17757 0.0389,-6.05694 c 4.9e-4,-0.0761 0.002,-0.12161 0.003,-0.19713 z"
       sodipodi:nodetypes="ccsccscssccccccsssccsccccc" />
    <path
       id="path48"
       style="fill:#000000;stroke:#000000;stroke-width:0.465;stroke-dasharray:none;stroke-opacity:1"
       d="m 42.278903,94.362425 h 0.40308 c -0.005,-2.42709 -0.005,-2.85642 -0.0119,-5.69061 -0.0109,-4.72086 -0.003,-6.9397 0.005,-9.27385 h -0.39636 v 10.71252 z"
       sodipodi:nodetypes="ccccccc" />
    <path
       id="path62"
       style="fill:#000000;stroke:#000000;stroke-width:0.465;stroke-dasharray:none;stroke-opacity:1"
       d="m 40.713623,87.878325 h -0.29301 l 5.2e-4,12.702575 -0.49144,0.31781 c -1.59276,1.03179 -1.35183,4.0728 0.39791,5.02399 0.93701,0.50913 2.04011,0.37992 2.99568,-0.3514 0.89016,-0.68124 1.23388,-2.63865 0.64855,-3.6928 -0.3326,-0.59898 -0.82562,-1.09755 -1.09297,-1.10536 -0.13064,-0.004 -0.17781,-0.43311 -0.17777,-1.609195 5e-5,-0.58645 -0.0132,-6.47221 -0.0238,-11.28562 h -0.40307 v 13.040025 l 0.53433,0.30076 c 0.71626,0.40373 1.08452,1.12769 1.06454,2.09134 -0.0301,1.45196 -0.80044,2.32619 -2.14458,2.43293 -1.02136,0.0811 -1.59376,-0.20286 -2.07687,-1.02888 -0.74301,-1.27038 -0.50794,-2.76513 0.55139,-3.50521 l 0.51986,-0.36277 z" />
    <path
       id="path61"
       style="fill:#000000;stroke:#000000;stroke-width:0.465;stroke-dasharray:none;stroke-opacity:1"
       d="m 40.388063,79.397965 c 0.0213,3.18242 0.037,7.31103 0.0372,12.22974 v 2.73472 h 0.293 l -0.003,-3.81527 c -0.003,-4.29128 -0.0157,-8.09883 -0.0315,-11.14919 z" />
    <path
       id="path46"
       style="fill:#000000;stroke:#000000;stroke-width:0.465;stroke-dasharray:none;stroke-opacity:1"
       d="m 49.366423,79.398195 h -0.42284 c 0.002,0.41315 0.005,0.45146 0.007,0.87929 l 0.027,5.65168 0.57567,0.4181 c 0.75185,0.54627 1.13351,1.25138 1.13405,2.09569 10e-4,1.06516 -0.50385,1.87235 -1.52461,2.43861 -1.48001,0.82101 -3.32062,-0.54623 -3.32062,-2.46642 0,-0.97353 0.44431,-1.91425 1.05528,-2.23415 l 0.47462,-0.24847 -0.0181,-6.51416 v -0.0202 h -0.37635 c 1.6e-4,0.12648 0.002,0.20883 0.002,0.3368 l 0.002,5.89159 -0.47296,0.30655 c -0.2602,0.16856 -0.58835,0.57274 -0.72904,0.89824 -0.60001,1.38824 -0.42453,2.77695 0.49549,3.85903 0.42787,0.50322 0.52806,0.6213 0.99154,0.76424 0.85359,0.26325 1.62106,0.0494 2.23584,-0.29493 1.86815,-1.04637 2.13684,-3.71047 0.50302,-4.98755 l -0.55812,-0.43613 -0.0802,-6.1801 c -9.9e-4,-0.0749 1.1e-4,-0.0841 -9.9e-4,-0.1574 z"
       sodipodi:nodetypes="ccccccssscccccccssscccccc" />
    <path
       id="path44"
       style="fill:#000000;stroke:#000000;stroke-width:0.465;stroke-dasharray:none;stroke-opacity:1"
       d="m 55.392313,94.362425 h 0.43873 c -0.003,-1.73077 -0.0113,-3.08601 -0.0114,-4.98833 l -5.2e-4,-9.97613 h -0.38499 c -0.0217,3.25596 -0.0389,7.45408 -0.0419,12.40493 -6.5e-4,1.09099 3.4e-4,1.61522 0,2.55953 z" />
    <path
       id="path64"
       style="fill:#000000;stroke:#000000;stroke-width:0.465;stroke-dasharray:none;stroke-opacity:1"
       d="m 53.849213,88.176515 h -0.36329 c 0.0249,6.73937 0.0117,12.258375 0.054,12.404925 -0.12402,0.42219 -0.0179,0.26326 -0.0706,0.42219 -0.12052,0.0508 -0.41352,0.41436 -0.65114,0.80822 -0.79719,1.32142 -0.4585,3.15661 0.76275,4.13309 0.5354,0.42801 0.66856,0.46399 1.5167,0.41289 0.68584,-0.0413 1.0509,-0.15087 1.39268,-0.41806 0.86977,-0.67999 1.36263,-2.34365 0.98599,-3.32796 -0.21904,-0.57246 -1.05029,-1.54565 -1.32033,-1.54565 -0.0949,0 -0.20572,-0.35454 -0.25683,-0.82165 -0.0389,-0.355575 -0.0667,-5.674725 -0.0796,-12.067995 h -0.43873 c -0.004,11.888965 0.0215,13.063405 0.24391,13.141825 0.93381,0.32868 1.60767,1.21255 1.60767,2.10944 0,0.90512 -0.54878,1.89048 -1.27746,2.29391 -0.87148,0.48252 -1.40682,0.45038 -2.13423,-0.12815 -0.74229,-0.59038 -1.2185,-1.65438 -1.09968,-2.45825 0.0885,-0.59894 0.89936,-1.84158 1.15274,-1.84151 0.10625,1e-5 -0.009,-3.745895 -0.0246,-13.117265 z"
       sodipodi:nodetypes="ccccscssssscccssssssc" />
    <path
       id="path63"
       style="fill:#000000;stroke:#000000;stroke-width:0.465;stroke-dasharray:none;stroke-opacity:1"
       d="m 53.458593,79.397965 0.0196,10.42934 c 0.003,1.75137 0.0132,2.9367 0.0191,4.53512 h 0.36329 c -10e-4,-0.84863 -8.7e-4,-1.46021 -0.003,-2.40605 -0.0145,-6.19423 -0.0336,-9.43607 -0.0512,-12.55841 z" />
    <path
       id="path42"
       style="fill:#000000;stroke:#000000;stroke-width:0.465;stroke-dasharray:none;stroke-opacity:1"
       d="m 62.056863,79.398195 h -0.395 v 6.36685 l 0.7012,0.64915 c 0.79048,0.73181 1.08213,1.45531 0.96705,2.39735 -0.14606,1.19555 -1.33616,2.32308 -2.45213,2.32308 -0.58822,0 -1.42765,-0.43065 -1.88176,-0.96518 -0.36537,-0.43006 -0.75493,-1.38612 -0.75493,-1.85272 0,-0.76112 1.09968,-2.346 1.62789,-2.346 0.20699,0 0.31591,-2.79848 0.29284,-6.57253 h -0.35297 c 0,5.39341 -0.0288,6.25927 -0.20878,6.25927 -0.32393,0 -1.23717,0.95543 -1.4514,1.51835 -0.46573,1.22383 -0.042,2.80787 0.9935,3.71247 0.47443,0.41446 0.67724,0.48208 1.56775,0.52354 1.23602,0.0575 1.90934,-0.29323 2.58324,-1.34599 0.36604,-0.5718 0.43042,-0.81332 0.42089,-1.58254 -0.0129,-1.04598 -0.36623,-1.8087 -1.13629,-2.45358 l -0.48213,-0.40373 -0.0389,-6.07222 c -3.9e-4,-0.0608 3.6e-4,-0.0952 0,-0.15557 z" />
    <path
       id="path40"
       style="fill:#000000;stroke:#000000;stroke-width:0.465;stroke-dasharray:none;stroke-opacity:1"
       d="m 68.669463,80.251785 -0.31203,-0.50253 -0.0137,16.49547 0.57427,0.41718 c 0.77803,0.56529 1.05748,1.19883 0.98014,2.22284 -0.15087,1.997445 -1.97436,2.914205 -3.57701,1.798305 -0.82714,-0.57593 -1.32414,-1.568745 -1.1864,-2.369225 0.13707,-0.79651 0.59907,-1.5193 1.15884,-1.81237 l 0.50078,-0.26193 -0.0365,-11.66766 -0.0162,-5.17367 h -0.29034 l 0.0128,5.19537 0.0281,11.37609 -0.31316,0.10392 c -1.24063,0.41259 -1.79022,2.48373 -1.03469,3.8992 0.19102,0.357855 0.61843,0.856905 0.9495,1.108815 0.51808,0.39419 0.73404,0.45844 1.55079,0.45844 1.0852,4.9e-4 1.6999,-0.34858 2.29624,-1.30412 0.28115,-0.450485 0.34351,-0.745705 0.34351,-1.627765 0,0 0.0886,-0.68695 -0.0117,-1.00748 -0.11698,-0.37395 -0.65861,-0.97363 -0.65861,-0.97363 l -0.88049,-0.62284 0.003,-10.76759 c -0.0189,-2.22524 -0.0431,-4.0563 -0.0668,-5.83841 z"
       sodipodi:nodetypes="ccccsssccccccccsscsssccccc" />
    <path
       style="fill:#caffce;fill-opacity:1;stroke:#caffce;stroke-width:0.465;stroke-dasharray:none;stroke-opacity:1"
       d="m 23.753413,5.2814149 c -3.58449,0.0463 -7.17938,-0.0775 -10.75578,0.20262 -1.05808,0.138 -1.94353,0.81967 -2.85191,1.33142 -2.6181601,1.79342 -4.7427705,4.5817801 -5.1930805,7.7785601 -0.16693,5.1553 -0.0494,10.31645 -0.0734,15.47409 0.0273,13.75185 0.0824,27.50362 0.12507,41.25543 0.42984,2.24154 1.61517,4.41604 3.6232004,5.60444 2.0464201,1.30637 4.5152001,1.68542 6.8482901,2.06035 0.0596,5.80719 0.0671,11.61685 0.005,17.42372 -0.49195,0.22051 -1.00946,0.48315 -1.25152,1.01894 -0.65689,0.89117 -0.36391,2.14389 0.46242,2.812905 0.93706,1.02679 2.84044,0.63418 3.26857,-0.697185 0.35271,-0.89222 0.18793,-2.00384 -0.61188,-2.60372 -0.25348,-0.31904 -0.81323,-0.42777 -0.71053,-0.94111 -0.12793,-5.66159 -0.0603,-11.32679 -0.10432,-16.9898 1.93199,0.13793 3.86982,0.12313 5.80541,0.12241 -0.0417,2.29258 0.0919,4.59704 -0.0935,6.88227 -0.63157,0.65294 -1.62411,1.21289 -1.58861,2.26242 -0.0871,1.39262 1.32049,2.82208 2.72814,2.43215 1.04651,-0.5471 1.96574,-1.88707 1.50109,-3.08276 -0.35675,-0.64324 -0.93364,-1.17541 -1.63264,-1.42253 0.0501,-2.35802 -0.0113,-4.76027 0.13319,-7.09128 1.65294,-0.0269 3.3063,0.0193 4.95931,0.0314 -0.0554,7.27163 0.002,14.54516 -0.15154,21.815425 0.071,0.3532 -0.10559,0.68743 -0.50107,0.63832 -0.78142,0.37134 -1.30227,1.47481 -0.8609,2.28781 0.32617,0.92997 1.24684,2.01966 2.33934,1.60963 1.18299,-0.34741 1.8822,-1.90664 1.35474,-3.0137 -0.28329,-0.55345 -0.90723,-0.90545 -1.17168,-1.42802 0,-7.307045 0,-14.614105 0,-21.921155 1.77735,0 3.55469,0 5.33203,0 0,2.33568 0,4.67137 0,7.00705 -1.23362,0.38974 -2.20307,1.81258 -1.60487,3.08222 0.40639,1.18885 1.88506,2.05757 3.04531,1.33065 1.00485,-0.49788 1.62483,-1.85249 1.22174,-2.91232 -0.40278,-0.66212 -0.99726,-1.22525 -1.72674,-1.5084 0,-2.33307 0,-4.66614 0,-6.9992 1.77735,0 3.55469,0 5.33203,0 0.0236,7.06518 -0.0569,14.1325 0.072,21.196265 0.2411,0.61535 -0.24102,0.86873 -0.68447,1.16539 -1.2849,0.90502 -0.98349,3.10719 0.33709,3.8176 1.20371,0.54159 2.85215,-0.29931 2.86059,-1.69823 0.1911,-0.95652 -0.28776,-1.96288 -1.21585,-2.32388 -0.64311,-0.19135 -0.21961,-1.00545 -0.34042,-1.501755 0,-6.88513 0,-13.77026 0,-20.65539 1.87089,0 3.74177,0 5.61266,0 -0.0133,2.32544 0.0619,4.65001 0.12241,6.97435 -1.75372,0.47523 -2.05937,3.01177 -0.79385,4.15194 0.71072,0.76596 1.99923,0.71587 2.66601,-0.0833 1.00593,-0.79533 1.11068,-2.45996 0.0767,-3.283 -0.34238,-0.42438 -1.05062,-0.64702 -0.91658,-1.3157 -0.0668,-2.14725 -0.0573,-4.29629 -0.0901,-6.44428 1.78739,0 3.57478,0 5.36217,0 0.1957,7.41354 0.10903,14.83103 0.14489,22.246375 -0.90379,0.74585 -1.56353,2.11698 -0.79439,3.19384 0.40076,0.78721 1.38254,1.56248 2.25894,0.98423 1.11475,-0.60143 1.8108,-2.30938 0.79476,-3.30712 -0.34931,-0.53549 -1.30631,-0.64867 -1.21442,-1.43203 -0.21876,-7.226135 -0.0958,-14.457635 -0.017,-21.685295 1.74628,0 3.49256,0 5.23885,0 -0.069,2.23835 0.004,4.49121 -0.20609,6.71948 -0.2246,0.4927 -0.86589,0.62605 -1.09111,1.14866 -0.47215,0.60194 -0.816,1.41816 -0.37802,2.13708 0.4043,1.13924 1.85885,2.157 3.01407,1.42053 1.23929,-0.63395 1.71792,-2.46269 0.74361,-3.51778 -0.32988,-0.47413 -0.90861,-0.80432 -1.16986,-1.28386 0,-2.19805 0,-4.3961 0,-6.59415 1.90066,-0.0837 3.81667,-0.009 5.70621,-0.24153 0,5.83519 0,11.67038 0,17.50558 -1.21332,0.42842 -2.15164,2.008 -1.32095,3.16991 0.58328,1.015855 2.01953,1.660495 3.05152,0.917165 1.11273,-0.929775 1.14503,-3.023835 -0.22357,-3.751185 -0.65052,-0.19838 -0.46373,-0.83189 -0.47802,-1.36214 0,-5.50419 0,-11.00839 0,-16.51258 2.98632,-0.35258 6.23075,-1.23369 8.18879,-3.68167 1.20895,-1.51098 1.7409,-3.47746 1.66604,-5.39511 0.19508,-12.03019 0.11709,-24.06286 0.12873,-36.09417 -0.007,-6.45456 -0.014,-12.90912 -0.0211,-19.36368 -0.86589,-3.72297 -3.5242,-6.9623901 -7.0087,-8.5337301 -1.18484,-0.59462 -2.57869,-0.37997 -3.86081,-0.48378 -11.00035,-0.11802 -22.00193,-0.0293 -33.00278,-0.0577 -3.47296,-5.3e-4 -6.94591,-0.002 -10.41887,0.002 z m 26.4524,4.8442101 c 5.7922,0.0305 11.58788,-0.0212 17.37707,0.17982 2.16747,0.0949 3.90248,1.81215 4.81097,3.66839 1.00635,1.92673 1.21356,4.1332 1.14597,6.27266 0.0755,14.19786 0.0991,28.39632 0.0451,42.59426 0.0517,2.13486 -0.15757,4.31262 -1.0434,6.28065 -1.04659,2.52349 -3.36353,4.40787 -6.01497,5.01905 -2.53693,0.72948 -5.20072,0.44007 -7.80309,0.52927 -13.0685,0.0239 -26.13774,0.0762 -39.20586,-0.0318 -2.87534,-0.20944 -5.98607,-1.03281 -7.84219,-3.40706 -1.8398101,-2.27523 -2.4008301,-5.30533 -2.3164101,-8.16594 -0.0634,-13.73682 -0.0331,-27.47419 0.0257,-41.21102 0.0291,-2.57234 -0.16575,-5.29551 1.0590501,-7.65693 0.95107,-2.13158 2.98099,-3.96785 5.41808,-3.95373 8.1335,-0.13631 16.26941,-0.0826 24.40393,-0.11844 3.31333,-0.004 6.62666,-0.003 9.94,8e-4 z"
       id="path106" />
    <path
       style="fill:#caffce;fill-opacity:1;stroke:#caffce;stroke-width:0.465;stroke-dasharray:none;stroke-opacity:1"
       d="m 20.498173,18.225975 c -1.00361,0.90627 -1.70837,2.16608 -2.03258,3.47357 -0.24844,2.12469 -0.15163,4.49881 1.16602,6.28263 0.51802,0.59285 1.42428,0.27874 2.11127,0.39194 5.65419,0.0961 11.31167,0.006 16.96428,0.16586 0.73043,-0.0545 1.32253,0.57787 1.26267,1.30286 0.031,1.31639 0.15623,2.66319 -0.0829,3.96394 -0.23151,0.6079 -0.97158,0.80848 -1.50511,1.03497 -5.76997,0.031 -11.53994,0.062 -17.30991,0.093 -1.34393,0.49216 -2.43628,1.61689 -2.71918,3.04275 -0.42015,2.03185 -0.35291,4.41479 1.02716,6.08605 0.81863,1.02226 2.16716,1.29916 3.41116,1.229 5.16549,0.0534 10.33151,0.0211 15.49722,0.0344 0.96549,0.31571 1.96378,1.13785 1.79945,2.26315 0.10945,4.96623 0.17315,9.93785 0.0375,14.9037 -0.026,0.91274 -0.54457,2.04332 -1.61436,1.99001 -1.75716,0.0495 -3.51355,-0.87906 -4.35767,-2.4433 -0.65677,-0.98527 -0.89338,-2.16561 -1.43551,-3.20517 -3.25497,-0.0374 -6.51509,0.0802 -9.76679,-0.0725 -1.13756,-0.0824 -1.58103,-1.41995 -1.44336,-2.39763 0.0513,-1.14427 0.96045,-2.16672 2.00736,-2.54031 2.60058,-0.5436 5.11608,0.85547 7.7112,0.72534 0.95108,-0.017 1.71601,-0.85674 1.62826,-1.80676 0.0183,-0.8366 -0.19303,-2.01754 -1.22284,-2.09927 -2.24119,-0.15557 -4.35284,1.05405 -6.60813,0.77571 -1.76644,-0.0657 -3.81426,-0.46993 -5.30726,0.74164 -1.46279,1.39988 -1.61306,3.59093 -1.42134,5.49037 0.0976,1.57285 1.05111,3.27939 2.71908,3.55932 2.5368,0.46901 5.13703,-0.38409 7.65949,0.17576 1.69767,0.53891 2.71843,2.13052 3.9391,3.31973 0.81166,0.90024 1.80281,1.93107 3.12948,1.80473 4.09234,0.0701 8.18585,0.0107 12.27866,0.0196 1.53749,-0.66649 2.46007,-2.16144 3.66025,-3.26038 0.88686,-0.98191 1.96371,-1.9492 3.35375,-2.02816 2.47793,-0.25888 5.02777,0.52084 7.46034,-0.19001 1.68261,-0.62394 2.18044,-2.59194 2.21134,-4.20559 0.0804,-1.8796 -0.32103,-4.18852 -2.17151,-5.1165 -1.93282,-0.88723 -4.08693,-0.10727 -6.11738,-0.33297 -1.81591,-0.0974 -3.57943,-1.05481 -5.40977,-0.67574 -1.00899,0.36645 -0.97947,1.7025 -0.84062,2.57941 0.14467,1.11087 1.43023,1.38274 2.35938,1.24747 2.05382,-0.1659 4.02832,-0.97814 6.11401,-0.79622 1.66677,-0.12923 2.99356,1.57711 2.7941,3.16601 0.0123,0.93249 -0.68992,1.95079 -1.70715,1.8686 -3.14104,0.13762 -6.29287,-0.0566 -9.43062,0.12369 -0.39321,0.17895 -0.36075,0.78751 -0.57989,1.12698 -0.57976,1.7451 -1.65365,3.56873 -3.50774,4.15481 -0.9772,0.30876 -2.41232,0.63479 -3.05956,-0.42077 -0.43447,-1.11207 -0.22256,-2.36068 -0.30466,-3.53128 -9e-5,-4.34171 -0.10044,-8.68651 0.0253,-13.02643 0.0953,-1.23663 1.46671,-2.05607 2.62107,-1.88741 5.24797,-0.0339 10.4986,0.0629 15.74486,-0.0756 1.95084,-0.11161 3.23155,-1.99605 3.47064,-3.79586 0.26916,-1.95396 0.17747,-4.30226 -1.41851,-5.69506 -0.65148,-0.50104 -1.41037,-0.96993 -2.26442,-0.83012 -5.35321,-0.0619 -10.70943,0.006 -16.06057,-0.15752 -0.88415,0.024 -2.06324,-0.42516 -2.00629,-1.4847 -0.0107,-1.36587 -0.16584,-2.77366 0.14507,-4.11358 0.44616,-0.8962 1.62676,-0.58618 2.43374,-0.6808 5.54528,-0.10128 11.09424,0.004 16.63779,-0.1632 0.54445,-0.0117 1.20423,-0.086 1.40207,-0.69217 0.97026,-1.73251 1.18826,-3.83182 0.93124,-5.77837 -0.30975,-1.39002 -1.02733,-2.75634 -2.12808,-3.67752 -0.51067,-0.45561 -1.27582,-0.12587 -1.90182,-0.22558 -13.20217,0 -26.40435,0 -39.60652,0 -0.12405,0.0898 -0.24811,0.17965 -0.37217,0.26948 z m 23.16154,2.82058 c 5.44132,0.0308 10.88655,-0.0339 16.32472,0.16169 1.09139,0.0477 1.38439,1.389 1.21777,2.27193 -0.12968,0.96279 -0.75685,2.1506 -1.88883,2.03528 -6.39275,0.12915 -12.7886,0.1172 -19.18276,0.14083 -5.69066,-0.0364 -11.38442,-0.002 -17.07239,-0.18446 -1.15757,-0.50029 -1.48763,-1.96563 -1.28423,-3.11455 0.0665,-0.8161 0.89431,-1.29229 1.65947,-1.18003 6.74038,-0.16241 13.48438,-0.11774 20.22625,-0.13069 z m -2.21071,17.11551 c 6.18988,0.0251 12.38146,-0.0554 18.57019,0.0696 0.90273,-0.12555 1.15621,0.94541 1.15725,1.63374 0.0219,0.97467 0.003,2.10692 -0.74872,2.83355 -12.6089,-0.0102 -25.21864,0.0799 -37.82699,-0.0391 -0.75795,-0.4318 -0.76696,-1.4886 -0.82162,-2.27283 -0.0211,-0.78653 0.0165,-1.85812 0.826,-2.22497 6.2813,0 12.56259,0 18.84389,0 z"
       id="path107" />
  </g>
</svg>
